<svg width="149" height="144" viewBox="0 0 149 144" fill="none" xmlns="http://www.w3.org/2000/svg">
<path d="M82.0313 32.5521L67.7083 18.2292L96.3542 46.875M31.25 10.4167C25.4688 10.4167 20.8333 15.0521 20.8333 20.8333V104.167C20.8333 106.929 21.9308 109.579 23.8843 111.532C25.8378 113.486 28.4873 114.583 31.25 114.583H93.75C96.5127 114.583 99.1622 113.486 101.116 111.532C103.069 109.579 104.167 106.929 104.167 104.167V41.6667L72.9167 10.4167H31.25Z" fill="#009E67"/>
<path fill-rule="evenodd" clip-rule="evenodd" d="M30.5 71C30.5 70.6022 30.658 70.2206 30.9393 69.9393C31.2206 69.658 31.6022 69.5 32 69.5H64C64.3978 69.5 64.7794 69.658 65.0607 69.9393C65.342 70.2206 65.5 70.6022 65.5 71C65.5 71.3978 65.342 71.7794 65.0607 72.0607C64.7794 72.342 64.3978 72.5 64 72.5H32C31.6022 72.5 31.2206 72.342 30.9393 72.0607C30.658 71.7794 30.5 71.3978 30.5 71ZM30.5 81C30.5 80.6022 30.658 80.2206 30.9393 79.9393C31.2206 79.658 31.6022 79.5 32 79.5H54C54.3978 79.5 54.7794 79.658 55.0607 79.9393C55.342 80.2206 55.5 80.6022 55.5 81C55.5 81.3978 55.342 81.7794 55.0607 82.0607C54.7794 82.342 54.3978 82.5 54 82.5H32C31.6022 82.5 31.2206 82.342 30.9393 82.0607C30.658 81.7794 30.5 81.3978 30.5 81ZM30.5 91C30.5 90.6022 30.658 90.2206 30.9393 89.9393C31.2206 89.658 31.6022 89.5 32 89.5H42C42.3978 89.5 42.7794 89.658 43.0607 89.9393C43.342 90.2206 43.5 90.6022 43.5 91C43.5 91.3978 43.342 91.7794 43.0607 92.0607C42.7794 92.342 42.3978 92.5 42 92.5H32C31.6022 92.5 31.2206 92.342 30.9393 92.0607C30.658 91.7794 30.5 91.3978 30.5 91Z" fill="white"/>
<path d="M108.062 51L91.875 34.8125L120.521 63.4583M55.4167 27C49.6354 27 45 31.6354 45 37.4167V120.75C45 123.513 46.0975 126.162 48.051 128.116C50.0045 130.069 52.654 131.167 55.4167 131.167H117.917C120.679 131.167 123.329 130.069 125.282 128.116C127.236 126.162 128.333 123.513 128.333 120.75V58.25L97.0833 27H55.4167Z" fill="white"/>
<path fill-rule="evenodd" clip-rule="evenodd" d="M54.5 90C54.5 89.6022 54.658 89.2206 54.9393 88.9393C55.2206 88.658 55.6022 88.5 56 88.5H88C88.3978 88.5 88.7794 88.658 89.0607 88.9393C89.342 89.2206 89.5 89.6022 89.5 90C89.5 90.3978 89.342 90.7794 89.0607 91.0607C88.7794 91.342 88.3978 91.5 88 91.5H56C55.6022 91.5 55.2206 91.342 54.9393 91.0607C54.658 90.7794 54.5 90.3978 54.5 90ZM54.5 100C54.5 99.6022 54.658 99.2206 54.9393 98.9393C55.2206 98.658 55.6022 98.5 56 98.5H78C78.3978 98.5 78.7794 98.658 79.0607 98.9393C79.342 99.2206 79.5 99.6022 79.5 100C79.5 100.398 79.342 100.779 79.0607 101.061C78.7794 101.342 78.3978 101.5 78 101.5H56C55.6022 101.5 55.2206 101.342 54.9393 101.061C54.658 100.779 54.5 100.398 54.5 100ZM54.5 110C54.5 109.602 54.658 109.221 54.9393 108.939C55.2206 108.658 55.6022 108.5 56 108.5H66C66.3978 108.5 66.7794 108.658 67.0607 108.939C67.342 109.221 67.5 109.602 67.5 110C67.5 110.398 67.342 110.779 67.0607 111.061C66.7794 111.342 66.3978 111.5 66 111.5H56C55.6022 111.5 55.2206 111.342 54.9393 111.061C54.658 110.779 54.5 110.398 54.5 110Z" fill="#009E67"/>
</svg>
